<svg width="15" height="14" viewBox="0 0 15 14" fill="none" xmlns="http://www.w3.org/2000/svg">
<path d="M7.5 12.8332C7.35417 12.8332 7.22917 12.7943 7.125 12.7165C7.02083 12.6387 6.94271 12.5366 6.89063 12.4103C6.69271 11.8658 6.44271 11.3554 6.14063 10.879C5.84896 10.4026 5.4375 9.84359 4.90625 9.20192C4.375 8.56025 3.94271 7.94775 3.60938 7.36442C3.28646 6.78109 3.125 6.07623 3.125 5.24984C3.125 4.11234 3.54688 3.14984 4.39062 2.36234C5.24479 1.56511 6.28125 1.1665 7.5 1.1665C8.71875 1.1665 9.75 1.56511 10.5938 2.36234C11.4479 3.14984 11.875 4.11234 11.875 5.24984C11.875 6.13456 11.6927 6.87345 11.3281 7.4665C10.974 8.04984 10.5625 8.62831 10.0938 9.20192C9.53125 9.90192 9.10417 10.4853 8.8125 10.9519C8.53125 11.4089 8.29688 11.895 8.10938 12.4103C8.05729 12.5464 7.97396 12.6533 7.85938 12.7311C7.75521 12.7991 7.63542 12.8332 7.5 12.8332ZM7.5 10.7478C7.67708 10.4172 7.875 10.0915 8.09375 9.77067C8.32292 9.44984 8.65625 9.02206 9.09375 8.48734C9.54167 7.94289 9.90625 7.4422 10.1875 6.98525C10.4792 6.51859 10.625 5.94011 10.625 5.24984C10.625 4.44289 10.3177 3.75748 9.70313 3.19359C9.09896 2.61998 8.36458 2.33317 7.5 2.33317C6.63542 2.33317 5.89583 2.61998 5.28125 3.19359C4.67708 3.75748 4.375 4.44289 4.375 5.24984C4.375 5.94011 4.51563 6.51859 4.79688 6.98525C5.08854 7.4422 5.45833 7.94289 5.90625 8.48734C6.34375 9.02206 6.67188 9.44984 6.89063 9.77067C7.11979 10.0915 7.32292 10.4172 7.5 10.7478ZM7.5 6.70817C7.9375 6.70817 8.30729 6.5672 8.60938 6.28525C8.91146 6.00331 9.0625 5.65817 9.0625 5.24984C9.0625 4.8415 8.91146 4.49636 8.60938 4.21442C8.30729 3.93248 7.9375 3.7915 7.5 3.7915C7.0625 3.7915 6.69271 3.93248 6.39063 4.21442C6.08854 4.49636 5.9375 4.8415 5.9375 5.24984C5.9375 5.65817 6.08854 6.00331 6.39063 6.28525C6.69271 6.5672 7.0625 6.70817 7.5 6.70817Z" fill="#ACACAC"/>
</svg>
