<svg width="16" height="17" viewBox="0 0 16 17" fill="none" xmlns="http://www.w3.org/2000/svg">
<path d="M9.15333 14.8753C9.03613 15.09 8.8679 15.2682 8.66548 15.3921C8.46307 15.5159 8.23359 15.5811 8 15.5811C7.76641 15.5811 7.53693 15.5159 7.33452 15.3921C7.13211 15.2682 6.96387 15.09 6.84667 14.8753M12 5.66699C12 4.53982 11.5786 3.45882 10.8284 2.66179C10.0783 1.86476 9.06087 1.41699 8 1.41699C6.93913 1.41699 5.92172 1.86476 5.17157 2.66179C4.42143 3.45882 4 4.53982 4 5.66699C4 10.6253 2 12.042 2 12.042H14C14 12.042 12 10.6253 12 5.66699Z" stroke="#1E1E1E" stroke-linecap="round" stroke-linejoin="round"/>
</svg>
